<?xml version="1.0" encoding="utf-8"?>
<!-- Generator: Adobe Illustrator 25.2.1, SVG Export Plug-In . SVG Version: 6.00 Build 0)  -->
<svg version="1.1" id="Capa_1" xmlns="http://www.w3.org/2000/svg" xmlns:xlink="http://www.w3.org/1999/xlink" x="0px" y="0px"
	 viewBox="0 0 258 26" style="enable-background:new 0 0 258 26;" xml:space="preserve">
<style type="text/css">
	.st0{fill:#FFFFFF;}
</style>
<g>
	<path class="st0" d="M16.7,23.8v1.6H0.3V1.6h15.9v1.6H2v9.4h12.7v1.5H2v9.8H16.7z"/>
	<path class="st0" d="M37.9,0.2v25.2h-1.7v-4.2c-0.7,1.4-1.7,2.4-3,3.2s-2.7,1.1-4.3,1.1c-1.7,0-3.2-0.4-4.5-1.2
		c-1.3-0.8-2.4-1.8-3.1-3.2c-0.8-1.4-1.1-2.9-1.1-4.7c0-1.7,0.4-3.3,1.1-4.7c0.8-1.4,1.8-2.4,3.1-3.2c1.3-0.8,2.8-1.1,4.5-1.1
		c1.6,0,3,0.4,4.3,1.1c1.3,0.7,2.2,1.8,3,3.1V0.2H37.9z M32.7,23.1c1.1-0.6,1.9-1.5,2.6-2.7c0.6-1.1,0.9-2.4,0.9-3.9
		c0-1.5-0.3-2.7-0.9-3.9c-0.6-1.1-1.5-2-2.6-2.7s-2.3-1-3.7-1s-2.6,0.3-3.7,1s-1.9,1.5-2.5,2.7c-0.6,1.1-0.9,2.4-0.9,3.9
		c0,1.5,0.3,2.7,0.9,3.9c0.6,1.1,1.5,2,2.5,2.7s2.3,1,3.7,1S31.7,23.7,32.7,23.1z"/>
	<path class="st0" d="M45,3c-0.3-0.3-0.4-0.6-0.4-1c0-0.4,0.1-0.7,0.4-1c0.3-0.3,0.6-0.4,1-0.4c0.4,0,0.7,0.1,1,0.4s0.4,0.6,0.4,1
		c0,0.4-0.1,0.7-0.4,1c-0.3,0.3-0.6,0.4-1,0.4C45.6,3.3,45.2,3.2,45,3z M45.1,7.7h1.7v17.7h-1.7V7.7z"/>
	<path class="st0" d="M62.8,24.3c-0.4,0.4-1,0.7-1.6,0.9c-0.6,0.2-1.3,0.3-2,0.3c-1.5,0-2.7-0.4-3.6-1.3s-1.3-2-1.3-3.6V9.1h-3.3
		V7.7h3.3V3.8H56v3.9h5.6v1.5H56v11.4c0,1.2,0.3,2,0.8,2.6c0.6,0.6,1.4,0.9,2.5,0.9c1.1,0,2-0.3,2.8-1L62.8,24.3z"/>
	<path class="st0" d="M69.3,24.4c-1.3-0.8-2.4-1.8-3.2-3.2c-0.8-1.4-1.2-2.9-1.2-4.6c0-1.7,0.4-3.3,1.2-4.6c0.8-1.4,1.8-2.4,3.2-3.2
		s2.9-1.2,4.5-1.2c1.7,0,3.2,0.4,4.5,1.2s2.4,1.8,3.2,3.2s1.2,2.9,1.2,4.6c0,1.7-0.4,3.3-1.2,4.6s-1.8,2.4-3.2,3.2s-2.9,1.2-4.5,1.2
		C72.1,25.5,70.6,25.2,69.3,24.4z M77.5,23.1c1.1-0.6,1.9-1.5,2.5-2.7c0.6-1.1,0.9-2.4,0.9-3.9c0-1.5-0.3-2.7-0.9-3.9
		c-0.6-1.1-1.5-2-2.5-2.7c-1.1-0.6-2.3-1-3.7-1s-2.6,0.3-3.7,1s-1.9,1.5-2.5,2.7c-0.6,1.1-0.9,2.4-0.9,3.9c0,1.5,0.3,2.7,0.9,3.9
		c0.6,1.1,1.5,2,2.5,2.7s2.3,1,3.7,1S76.4,23.7,77.5,23.1z"/>
	<path class="st0" d="M92.1,8.6c1.2-0.7,2.6-1,4.2-1v1.7l-0.4,0c-2,0-3.5,0.6-4.6,1.9s-1.7,3-1.7,5.2v9.2h-1.7V7.7h1.6v3.9
		C90.1,10.2,91,9.3,92.1,8.6z"/>
	<path class="st0" d="M100.9,3c-0.3-0.3-0.4-0.6-0.4-1c0-0.4,0.1-0.7,0.4-1c0.3-0.3,0.6-0.4,1-0.4c0.4,0,0.7,0.1,1,0.4
		c0.3,0.3,0.4,0.6,0.4,1c0,0.4-0.1,0.7-0.4,1c-0.3,0.3-0.6,0.4-1,0.4C101.5,3.3,101.2,3.2,100.9,3z M101,7.7h1.7v17.7H101V7.7z"/>
	<path class="st0" d="M121,9.2c1.2,1.1,1.8,2.8,1.8,4.9v11.3h-1.6v-3.2c-0.6,1-1.4,1.9-2.5,2.4c-1.1,0.6-2.4,0.9-3.9,0.9
		c-2,0-3.5-0.5-4.7-1.4c-1.1-0.9-1.7-2.2-1.7-3.7c0-1.5,0.5-2.7,1.6-3.6s2.7-1.4,5-1.4h6.1v-1.4c0-1.7-0.4-2.9-1.3-3.8
		S117.5,9,115.8,9c-1.2,0-2.3,0.2-3.4,0.6c-1.1,0.4-2,1-2.7,1.6l-0.8-1.2c0.9-0.8,1.9-1.4,3.2-1.9s2.5-0.7,3.9-0.7
		C118.1,7.5,119.8,8.1,121,9.2z M118.7,23.1c1-0.7,1.8-1.7,2.3-3v-3.3H115c-1.7,0-3,0.3-3.8,1c-0.8,0.6-1.2,1.5-1.2,2.6
		c0,1.2,0.4,2.1,1.3,2.7c0.9,0.7,2.1,1,3.6,1C116.4,24.2,117.7,23.8,118.7,23.1z"/>
	<path class="st0" d="M129.7,0.2h1.7v25.2h-1.7V0.2z"/>
	<path class="st0" d="M151.4,24.2c-2-1.1-3.5-2.5-4.6-4.4s-1.7-4-1.7-6.3s0.6-4.5,1.7-6.3c1.1-1.9,2.7-3.3,4.6-4.4s4.2-1.6,6.6-1.6
		c2.1,0,3.9,0.4,5.6,1.1c1.7,0.7,3.1,1.8,4.2,3.1l-3.5,3.3c-1.6-1.9-3.6-2.8-6-2.8c-1.5,0-2.8,0.3-3.9,1c-1.2,0.6-2.1,1.5-2.7,2.7
		c-0.6,1.2-1,2.5-1,3.9s0.3,2.8,1,3.9c0.6,1.2,1.5,2.1,2.7,2.7c1.2,0.6,2.5,1,3.9,1c2.4,0,4.4-0.9,6-2.8l3.5,3.3
		c-1.1,1.4-2.5,2.4-4.2,3.2c-1.7,0.7-3.5,1.1-5.6,1.1C155.5,25.8,153.3,25.3,151.4,24.2z"/>
	<path class="st0" d="M184.9,8.9c1.5,1.3,2.3,3.4,2.3,6.1v10.4h-5v-2.3c-1,1.7-2.9,2.5-5.6,2.5c-1.4,0-2.6-0.2-3.7-0.7
		c-1-0.5-1.8-1.1-2.4-2c-0.5-0.8-0.8-1.8-0.8-2.9c0-1.7,0.6-3,1.9-4c1.3-1,3.3-1.5,5.9-1.5h4.2c0-1.2-0.4-2-1.1-2.7
		c-0.7-0.6-1.8-0.9-3.2-0.9c-1,0-1.9,0.2-2.9,0.5c-0.9,0.3-1.7,0.7-2.4,1.2l-1.9-3.7c1-0.7,2.2-1.2,3.6-1.6c1.4-0.4,2.8-0.6,4.3-0.6
		C181.2,6.8,183.4,7.5,184.9,8.9z M180.4,21.5c0.7-0.4,1.2-1,1.5-1.9v-1.9h-3.6c-2.2,0-3.3,0.7-3.3,2.1c0,0.7,0.3,1.2,0.8,1.6
		s1.3,0.6,2.2,0.6C178.8,22.1,179.7,21.9,180.4,21.5z"/>
	<path class="st0" d="M193.6,25.1c-1.5-0.4-2.6-0.8-3.5-1.4l1.8-3.8c0.8,0.5,1.8,0.9,3,1.3c1.2,0.3,2.3,0.5,3.4,0.5
		c2.2,0,3.4-0.6,3.4-1.7c0-0.5-0.3-0.9-0.9-1.1s-1.6-0.4-2.8-0.6c-1.5-0.2-2.7-0.5-3.7-0.8c-1-0.3-1.8-0.8-2.5-1.6
		c-0.7-0.7-1.1-1.8-1.1-3.2c0-1.2,0.3-2.2,1-3.1c0.7-0.9,1.6-1.6,2.9-2.1c1.3-0.5,2.8-0.7,4.5-0.7c1.3,0,2.6,0.1,3.9,0.4
		c1.3,0.3,2.3,0.7,3.2,1.2l-1.8,3.8c-1.6-0.9-3.4-1.4-5.3-1.4c-1.1,0-2,0.2-2.5,0.5c-0.6,0.3-0.8,0.7-0.8,1.2c0,0.6,0.3,1,0.9,1.2
		c0.6,0.2,1.6,0.4,2.9,0.6c1.5,0.2,2.7,0.5,3.7,0.8c1,0.3,1.8,0.8,2.5,1.5c0.7,0.7,1.1,1.8,1.1,3.1c0,1.1-0.3,2.1-1,3
		c-0.7,0.9-1.7,1.6-3,2.1c-1.3,0.5-2.9,0.7-4.6,0.7C196.6,25.7,195.1,25.5,193.6,25.1z"/>
	<path class="st0" d="M221.8,24.5c-0.5,0.4-1.2,0.7-1.9,0.9c-0.8,0.2-1.6,0.3-2.4,0.3c-2.2,0-3.9-0.6-5-1.7
		c-1.2-1.1-1.8-2.7-1.8-4.9v-7.5h-2.8V7.5h2.8V3.1h5.3v4.5h4.6v4.1H216v7.4c0,0.8,0.2,1.4,0.6,1.8c0.4,0.4,1,0.6,1.7,0.6
		c0.8,0,1.6-0.2,2.1-0.7L221.8,24.5z"/>
	<path class="st0" d="M232.4,7.5c1.1-0.5,2.3-0.7,3.7-0.7v4.9c-0.6,0-1-0.1-1.2-0.1c-1.5,0-2.7,0.4-3.6,1.3
		c-0.9,0.9-1.3,2.1-1.3,3.8v8.6h-5.3V7.1h5.1v2.4C230.5,8.6,231.3,8,232.4,7.5z"/>
	<path class="st0" d="M242.7,24.5c-1.5-0.8-2.7-1.9-3.6-3.3c-0.9-1.4-1.3-3-1.3-4.9s0.4-3.4,1.3-4.9s2.1-2.5,3.6-3.3
		s3.3-1.2,5.2-1.2c1.9,0,3.6,0.4,5.2,1.2c1.5,0.8,2.7,1.9,3.6,3.3s1.3,3,1.3,4.9s-0.4,3.4-1.3,4.9c-0.9,1.4-2.1,2.5-3.6,3.3
		c-1.5,0.8-3.2,1.2-5.2,1.2C245.9,25.7,244.2,25.3,242.7,24.5z M251.2,20c0.9-0.9,1.3-2.1,1.3-3.7s-0.4-2.8-1.3-3.7
		c-0.9-0.9-2-1.4-3.3-1.4c-1.4,0-2.5,0.5-3.4,1.4s-1.3,2.1-1.3,3.7s0.4,2.8,1.3,3.7s2,1.4,3.4,1.4C249.2,21.3,250.3,20.9,251.2,20z"
		/>
</g>
</svg>
