<?xml version="1.0" encoding="utf-8"?>
<!-- Generator: Adobe Illustrator 25.2.1, SVG Export Plug-In . SVG Version: 6.00 Build 0)  -->
<svg version="1.1" id="Capa_1" xmlns="http://www.w3.org/2000/svg" xmlns:xlink="http://www.w3.org/1999/xlink" x="0px" y="0px"
	 viewBox="0 0 40 40" style="enable-background:new 0 0 40 40;" xml:space="preserve">
<style type="text/css">
	.st0{display:none;}
	.st1{display:inline;fill:#FFFFFF;}
	.st2{display:none;fill:#D7B582;}
	.st3{display:none;fill:#C6C6C6;}
	.st4{fill:#FFFFFF;}
</style>
<g class="st0">
	<path class="st1" d="M10.3,22.7c-0.3-1.1-0.5-2.2-0.8-3.3C8.3,14,7,8.6,5.8,3.2C5.7,2.8,5.5,2.6,5,2.7c-1.2,0-2.4,0-3.5,0
		C0.6,2.7,0,2.1,0,1.3C0,0.5,0.6,0,1.5,0c1.7,0,3.3,0,5,0C7.3,0,7.8,0.4,8,1.2c0.3,1.2,0.6,2.4,0.9,3.7c0.1,0.4,0.2,0.5,0.6,0.5
		c8.8,0,17.5,0,26.3,0c0.3,0,0.6,0,0.9,0.1c2.3,0.4,3.8,2.6,3.3,4.9c-0.9,3.9-1.8,7.9-2.8,11.8c-0.5,2-2,3.2-4.1,3.2
		c-7.4,0-14.7,0-22.1,0c-0.2,0-0.4,0-0.7,0.1c-0.6,0.2-1,0.8-0.9,1.4c0.1,0.6,0.6,1.1,1.2,1.2c0.2,0,0.3,0,0.5,0c7.4,0,14.7,0,22,0
		c0.2,0,0.3,0,0.5,0c0.7,0.1,1.2,0.7,1.1,1.4c0,0.7-0.6,1.2-1.2,1.2c-0.1,0-0.2,0-0.3,0c-7.5,0-14.9,0-22.3,0
		c-2.1,0-3.7-1.3-4.1-3.3c-0.4-2.2,1-4.2,3.2-4.6C10.1,22.7,10.2,22.7,10.3,22.7z"/>
	<path class="st1" d="M14.7,40c-2.2,0-4-1.8-4-4s1.8-4,4-4s4,1.8,4,4C18.7,38.2,16.9,40,14.7,40z"/>
	<path class="st1" d="M29.4,32c2.2,0,4,1.8,4,4c0,2.2-1.8,4-4,4c-2.2,0-4-1.8-4-4C25.3,33.8,27.1,32,29.4,32z"/>
</g>
<path class="st2" d="M3.9,17.9c-0.4,0.4-0.8,0.8-1.2,1.2c-0.5,0.5-0.9,0.5-1.3,0.1c-0.3-0.4-0.3-0.8,0.1-1.2
	c3.8-3.9,7.7-7.7,11.6-11.6c2-2,4-4,6-6c0.6-0.6,1-0.6,1.6,0c5.8,5.8,11.7,11.7,17.5,17.5c0.3,0.3,0.5,0.6,0.4,1
	c-0.2,0.6-0.9,0.8-1.3,0.3c-0.4-0.4-0.8-0.9-1.3-1.3c0,0-0.1,0-0.1,0c0,0.2,0,0.4,0,0.5c0,6.8,0,13.5,0,20.3c0,1-0.2,1.2-1.2,1.2
	c-3.2,0-6.4,0-9.6,0c-0.9,0-1.1-0.2-1.1-1.1c0-2.8,0-5.7,0-8.5c0-0.2,0-0.3,0-0.5c-2.7,0-5.3,0-8.1,0c0,0.2,0,0.3,0,0.5
	c0,2.9,0,5.7,0,8.6c0,0.8-0.2,1.1-1.1,1.1c-3.2,0-6.5,0-9.7,0C4.3,40,4,39.7,4,38.9c0-6.8,0-13.5,0-20.3c0-0.2,0-0.4,0-0.5
	C4,18,4,17.9,3.9,17.9z"/>
<path class="st3" d="M7.3,32.1c1.2-4.2-0.2-7.8-3.3-10.9c-1.3-1.4-2.4-3-3.5-4.6c-0.8-1.1-0.7-1.5,0.6-1.9c3.2-0.9,6.3-1.9,9.5-2.8
	c1.2-0.3,2-0.9,2.7-2c1.7-2.6,3.5-5.1,5.2-7.7c1.2-1.8,1.5-1.8,2.7-0.1c1.8,2.5,3.5,5.1,5.2,7.7c0.7,1.1,1.6,1.7,2.8,2.1
	c3.2,0.9,6.3,1.8,9.4,2.8c1.4,0.4,1.5,0.8,0.7,2c-2,2.7-4.2,5.3-6.1,8c-0.5,0.7-0.9,1.8-0.9,2.7c0,3.3,0.2,6.6,0.2,10
	c0,1.8-0.2,2-2,1.3c-3-1.1-6-2.2-9.1-3.2c-0.9-0.3-2.1-0.3-3.1,0c-3.2,1-6.3,2.2-9.5,3.3c-1.3,0.5-1.6,0.2-1.6-1.1
	C7.3,35.9,7.3,34.1,7.3,32.1z"/>
<g>
	<path class="st4" d="M20,10.9c-5.8,0-11.6,0-17.4,0c-1.8,0-3-1.5-2.5-3.2c0.3-1,1.1-1.7,2.2-1.7c0.1,0,0.2,0,0.3,0
		c11.6,0,23.3,0,34.9,0c1.4,0,2.5,1,2.6,2.3c0.1,1.5-1,2.6-2.5,2.6c-1.9,0-3.9,0-5.8,0C27.8,10.9,23.9,10.9,20,10.9z"/>
	<path class="st4" d="M20,17.5c5.8,0,11.6,0,17.4,0c1.8,0,2.9,1.5,2.5,3.2c-0.3,1-1.1,1.7-2.2,1.8c-0.1,0-0.3,0-0.4,0
		c-11.5,0-23,0-34.6,0c-1.6,0-2.6-0.9-2.7-2.4c-0.1-1.5,1-2.6,2.5-2.6c2.9,0,5.8,0,8.6,0C14.1,17.5,17.1,17.5,20,17.5z"/>
	<path class="st4" d="M20,29.1c5.8,0,11.6,0,17.4,0c1.8,0,2.9,1.5,2.5,3.2c-0.3,1-1.1,1.7-2.2,1.8c-0.1,0-0.3,0-0.4,0
		c-11.5,0-23,0-34.6,0c-1.6,0-2.6-0.9-2.7-2.4c-0.1-1.5,1-2.6,2.5-2.6c3,0,5.9,0,8.9,0C14.3,29.1,17.1,29.1,20,29.1z"/>
</g>
</svg>
