<?xml version="1.0" encoding="utf-8"?>
<!-- Generator: Adobe Illustrator 25.2.1, SVG Export Plug-In . SVG Version: 6.00 Build 0)  -->
<svg version="1.1" id="Capa_1" xmlns="http://www.w3.org/2000/svg" xmlns:xlink="http://www.w3.org/1999/xlink" x="0px" y="0px"
	 viewBox="0 0 40 40" style="enable-background:new 0 0 40 40;" xml:space="preserve">
<style type="text/css">
	.st0{display:none;}
	.st1{display:inline;fill:#FFFFFF;}
	.st2{display:none;fill:#D7B582;}
	.st3{fill:#C6C6C6;}
</style>
<g class="st0">
	<path class="st1" d="M10.31,22.68c-0.26-1.12-0.52-2.21-0.77-3.3C8.28,14,7,8.62,5.75,3.23C5.65,2.77,5.48,2.64,5.02,2.66
		C3.84,2.69,2.66,2.67,1.48,2.67C0.6,2.66-0.01,2.11,0,1.32C0,0.54,0.61,0,1.5,0c1.67,0,3.33,0,5,0C7.35,0,7.8,0.37,8,1.2
		c0.29,1.21,0.58,2.43,0.85,3.65c0.08,0.37,0.21,0.5,0.62,0.5C18.23,5.33,27,5.33,35.76,5.34c0.29,0,0.59,0.01,0.87,0.06
		c2.35,0.4,3.8,2.58,3.26,4.9c-0.92,3.94-1.85,7.88-2.79,11.82c-0.48,2.03-2,3.22-4.08,3.22c-7.36,0-14.72,0-22.09,0
		c-0.22,0-0.45,0.01-0.66,0.07c-0.62,0.18-1,0.77-0.93,1.4c0.07,0.62,0.58,1.13,1.21,1.18C10.7,28.01,10.85,28,11.01,28
		c7.35,0,14.7,0,22.04,0c0.17,0,0.34-0.01,0.5,0.02c0.67,0.11,1.16,0.72,1.12,1.4c-0.04,0.66-0.57,1.19-1.24,1.25
		c-0.1,0.01-0.19,0-0.29,0c-7.45,0-14.89,0-22.34,0c-2.09,0-3.71-1.31-4.07-3.28c-0.4-2.17,1.05-4.25,3.23-4.64
		C10.06,22.73,10.17,22.71,10.31,22.68z"/>
	<path class="st1" d="M14.66,40c-2.2,0-3.99-1.81-3.99-4.01c0-2.2,1.81-3.99,4.01-3.99c2.2,0,3.99,1.8,3.99,4.01
		C18.66,38.21,16.86,40,14.66,40z"/>
	<path class="st1" d="M29.35,32c2.2,0.01,3.99,1.81,3.98,4.02c-0.01,2.2-1.81,3.99-4.02,3.98c-2.2-0.01-3.99-1.81-3.98-4.02
		C25.34,33.78,27.15,31.99,29.35,32z"/>
</g>
<path class="st2" d="M3.92,17.92c-0.39,0.4-0.77,0.82-1.17,1.21c-0.46,0.45-0.91,0.49-1.27,0.11c-0.33-0.36-0.29-0.8,0.14-1.24
	c3.85-3.85,7.7-7.71,11.55-11.56c2-2,4-3.99,6-5.99c0.61-0.61,0.97-0.61,1.58,0c5.83,5.83,11.65,11.66,17.48,17.49
	c0.28,0.28,0.51,0.56,0.38,0.98c-0.18,0.59-0.86,0.76-1.35,0.3c-0.44-0.42-0.84-0.87-1.26-1.31c-0.04,0.01-0.09,0.03-0.13,0.04
	c0,0.17,0,0.35,0,0.52c0,6.76,0,13.52,0,20.28c0,0.97-0.22,1.19-1.17,1.2c-3.2,0-6.4,0-9.6,0c-0.9,0-1.12-0.22-1.12-1.14
	c0-2.84,0-5.68,0-8.52c0-0.17,0-0.34,0-0.53c-2.68,0-5.33,0-8.05,0c0,0.16,0,0.32,0,0.49c0,2.87,0,5.74,0,8.62
	c0,0.84-0.24,1.09-1.08,1.09c-3.23,0-6.46,0-9.69,0c-0.87,0-1.12-0.24-1.12-1.11c0-6.77,0-13.55,0-20.32c0-0.18,0-0.36,0-0.55
	C4,17.96,3.96,17.94,3.92,17.92z"/>
<path class="st3" d="M7.34,32.14c1.17-4.18-0.19-7.77-3.27-10.92c-1.34-1.37-2.4-3.02-3.55-4.56c-0.82-1.1-0.69-1.49,0.63-1.88
	c3.17-0.95,6.35-1.93,9.54-2.81c1.21-0.33,2.04-0.95,2.72-1.99c1.7-2.59,3.48-5.12,5.23-7.67c1.25-1.83,1.46-1.83,2.68-0.06
	c1.75,2.55,3.53,5.09,5.23,7.67c0.71,1.08,1.57,1.72,2.83,2.06c3.16,0.85,6.28,1.82,9.41,2.76c1.39,0.42,1.53,0.82,0.66,1.97
	c-2.04,2.68-4.15,5.3-6.12,8.03c-0.53,0.74-0.89,1.78-0.9,2.68c-0.02,3.32,0.15,6.64,0.22,9.96c0.04,1.85-0.18,1.98-1.96,1.35
	c-3.04-1.08-6.05-2.24-9.13-3.21c-0.94-0.3-2.13-0.3-3.08-0.01c-3.2,1-6.34,2.21-9.52,3.32c-1.32,0.46-1.63,0.24-1.64-1.13
	C7.33,35.92,7.34,34.13,7.34,32.14z"/>
</svg>
